<svg xmlns="http://www.w3.org/2000/svg" width="31.925" height="31.925" viewBox="0 0 31.925 31.925">
  <path id="shopping-bag_5_" data-name="shopping-bag (5)" d="M27.935,7.981H23.944a7.981,7.981,0,0,0-15.963,0H3.991A3.991,3.991,0,0,0,0,11.972v13.3a6.659,6.659,0,0,0,6.651,6.651H25.274a6.659,6.659,0,0,0,6.651-6.651v-13.3A3.991,3.991,0,0,0,27.935,7.981ZM15.963,2.66a5.321,5.321,0,0,1,5.321,5.321H10.642A5.321,5.321,0,0,1,15.963,2.66Zm13.3,22.614a3.991,3.991,0,0,1-3.991,3.991H6.651A3.991,3.991,0,0,1,2.66,25.274v-13.3a1.33,1.33,0,0,1,1.33-1.33H7.981V13.3a1.33,1.33,0,0,0,2.66,0v-2.66H21.284V13.3a1.33,1.33,0,0,0,2.66,0v-2.66h3.991a1.33,1.33,0,0,1,1.33,1.33Z" fill="#fff"/>
</svg>